<svg xmlns="http://www.w3.org/2000/svg" style="margin-left: calc(50% - 0.5em)" viewBox="0 0 1024 1024" width="1024" height="1024"><g transform="scale(0.03125)"><path d="M 917.806 229.076 c -22.212 -30.292 -53.174 -65.7 -87.178 -99.704 s -69.412 -64.964 -99.704 -87.178 c -51.574 -37.82 -76.592 -42.194 -90.924 -42.194 h -496 c -44.112 0 -80 35.888 -80 80 v 864 c 0 44.112 35.888 80 80 80 h 736 c 44.112 0 80 -35.888 80 -80 v -624 c 0 -14.332 -4.372 -39.35 -42.194 -90.924 Z M 785.374 174.626 c 30.7 30.7 54.8 58.398 72.58 81.374 h -153.954 v -153.946 c 22.984 17.78 50.678 41.878 81.374 72.572 Z M 896 944 c 0 8.672 -7.328 16 -16 16 h -736 c -8.672 0 -16 -7.328 -16 -16 v -864 c 0 -8.672 7.328 -16 16 -16 c 0 0 495.956 -0.002 496 0 v 224 c 0 17.672 14.326 32 32 32 h 224 v 624 Z" /></g></svg>